#N canvas 0 22 1440 900 12;
#X msg 632 118 220;
#X floatatom 632 181 5 0 0 0 - - - 0;
#X obj 637 262 osc~;
#X obj 737 262 * 2;
#X floatatom 734 341 5 0 440 0 - - - 0;
#X obj 734 415 osc~;
#X obj 638 475 *~ 0.25;
#X obj 639 540 dac~;
#X obj 721 513 vsl 15 128 0 1 0 0 empty empty empty 0 -9 0 10 #fcfcfc
#000000 #000000 0 1;
#X obj 630 67 bng 15 250 50 0 empty empty empty 17 7 0 10 #fcfcfc #000000
#000000;
#X floatatom 795 342 5 0 660 0 - - - 0;
#X obj 795 416 osc~;
#X floatatom 859 353 5 0 1240 0 - - - 0;
#X obj 860 415 osc~;
#X floatatom 928 340 5 0 1660 0 - - - 0;
#X obj 928 414 osc~;
#X obj 798 263 * 3;
#X obj 863 262 * 5;
#X obj 931 261 * 7;
#X connect 0 0 1 0;
#X connect 0 0 3 0;
#X connect 0 0 16 0;
#X connect 0 0 17 0;
#X connect 0 0 18 0;
#X connect 1 0 2 0;
#X connect 2 0 6 0;
#X connect 3 0 4 0;
#X connect 4 0 5 0;
#X connect 5 0 6 0;
#X connect 6 0 7 0;
#X connect 6 0 7 1;
#X connect 8 0 6 1;
#X connect 9 0 0 0;
#X connect 10 0 11 0;
#X connect 11 0 6 0;
#X connect 12 0 13 0;
#X connect 13 0 6 0;
#X connect 14 0 15 0;
#X connect 15 0 6 0;
#X connect 16 0 10 0;
#X connect 17 0 12 0;
#X connect 18 0 14 0;
