#N canvas 0 23 1440 803 12;
#X obj 653 139 tgl 15 0 empty empty empty 17 7 0 10 #fcfcfc #000000
#000000 0 1;
#X floatatom 718 148 5 0 0 0 - - - 0;
#X obj 651 273 bng 15 250 50 0 empty empty empty 17 7 0 10 #fcfcfc
#000000 #000000;
#X msg 717 114 100;
#X obj 718 78 loadbang;
#X msg 719 177 tempo \$1 permin;
#X obj 652 218 metro;
#X text 716 29 bpm select;
#X obj 224 289 bng 15 250 50 0 empty empty empty 17 7 0 10 #fcfcfc
#000000 #000000;
#X obj 223 328 int 1;
#X obj 286 326 + 1;
#X floatatom 222 374 5 0 0 0 - - - 0;
#X obj 221 460 + 1;
#X floatatom 221 503 5 0 0 0 - - - 0;
#X text 346 330 sequence adds 1;
#X text 303 379 module mathematical function;
#X text 302 418 divide count by 4 and spit out remainder;
#X text 305 457 add 1 to remainder;
#X obj 140 591 bng 15 250 50 0 empty empty empty 17 7 0 10 #fcfcfc
#000000 #000000;
#X obj 196 591 bng 15 250 50 0 empty empty empty 17 7 0 10 #fcfcfc
#000000 #000000;
#X obj 256 591 bng 15 250 50 0 empty empty empty 17 7 0 10 #fcfcfc
#000000 #000000;
#X obj 312 591 bng 15 250 50 0 empty empty empty 17 7 0 10 #fcfcfc
#000000 #000000;
#X floatatom 139 643 5 0 0 0 - - - 0;
#X floatatom 197 641 5 0 0 0 - - - 0;
#X floatatom 259 642 5 0 0 0 - - - 0;
#X floatatom 323 643 5 0 0 0 - - - 0;
#X obj 294 725 mtof;
#X floatatom 294 757 5 0 0 0 - - - 0;
#X obj 296 692 select 0;
#X obj 294 892 *~ 0.75;
#X obj 449 915 output~;
#X obj 224 793 * 2;
#X floatatom 223 829 5 0 0 0 - - - 0;
#X obj 380 796 * 3;
#X floatatom 377 832 5 0 0 0 - - - 0;
#X obj 440 795 * 0.5;
#X floatatom 441 833 5 0 0 0 - - - 0;
#X obj 499 795 * 0.047;
#X floatatom 503 835 5 0 0 0 - - - 0;
#X obj 374 863 osc~;
#X obj 441 864 osc~;
#X obj 504 864 osc~;
#X obj 222 865 osc~;
#X obj 387 591 bng 15 250 50 0 empty empty empty 17 7 0 10 #fcfcfc
#000000 #000000;
#X obj 443 591 bng 15 250 50 0 empty empty empty 17 7 0 10 #fcfcfc
#000000 #000000;
#X obj 503 591 bng 15 250 50 0 empty empty empty 17 7 0 10 #fcfcfc
#000000 #000000;
#X obj 578 589 bng 15 250 50 0 empty empty empty 17 7 0 10 #fcfcfc
#000000 #000000;
#X floatatom 386 643 5 0 0 0 - - - 0;
#X floatatom 444 641 5 0 0 0 - - - 0;
#X floatatom 506 642 5 0 0 0 - - - 0;
#X floatatom 577 638 5 0 0 0 - - - 0;
#X obj 259 542 select 0 1 2 3 4 5 6 7;
#X obj 222 416 % 8;
#X obj 227 898 *~ 1.5;
#X floatatom 120 918 5 0 0 0 - - - 0;
#X obj 110 727 vsl 15 128 0 3000 0 0 empty empty empty 0 -9 0 10 #fcfcfc
#000000 #000000 0 1;
#X obj 349 938 lop~;
#X obj 655 322 int 1;
#X obj 718 320 + 1;
#X floatatom 654 368 5 0 0 0 - - - 0;
#X obj 653 454 + 1;
#X floatatom 653 497 5 0 0 0 - - - 0;
#X text 778 324 sequence adds 1;
#X text 735 373 module mathematical function;
#X text 734 412 divide count by 4 and spit out remainder;
#X text 737 451 add 1 to remainder;
#X obj 833 584 bng 15 250 50 0 empty empty empty 17 7 0 10 #fcfcfc
#000000 #000000;
#X obj 889 584 bng 15 250 50 0 empty empty empty 17 7 0 10 #fcfcfc
#000000 #000000;
#X floatatom 774 634 5 0 0 0 - - - 0;
#X floatatom 836 635 5 0 0 0 - - - 0;
#X floatatom 900 636 5 0 0 0 - - - 0;
#X obj 726 719 mtof;
#X floatatom 726 751 5 0 0 0 - - - 0;
#X obj 728 686 select 0;
#X obj 728 807 phasor~;
#X obj 726 886 *~ 0.75;
#X obj 805 911 output~;
#X obj 656 787 * 2;
#X floatatom 655 823 5 0 0 0 - - - 0;
#X obj 812 790 * 3;
#X floatatom 809 826 5 0 0 0 - - - 0;
#X obj 872 789 * 0.5;
#X floatatom 873 827 5 0 0 0 - - - 0;
#X obj 931 789 * 0.047;
#X floatatom 935 829 5 0 0 0 - - - 0;
#X obj 964 584 bng 15 250 50 0 empty empty empty 17 7 0 10 #fcfcfc
#000000 #000000;
#X obj 1020 584 bng 15 250 50 0 empty empty empty 17 7 0 10 #fcfcfc
#000000 #000000;
#X obj 1080 584 bng 15 250 50 0 empty empty empty 17 7 0 10 #fcfcfc
#000000 #000000;
#X obj 1155 582 bng 15 250 50 0 empty empty empty 17 7 0 10 #fcfcfc
#000000 #000000;
#X floatatom 963 636 5 0 0 0 - - - 0;
#X floatatom 1021 634 5 0 0 0 - - - 0;
#X floatatom 1083 635 5 0 0 0 - - - 0;
#X floatatom 1154 631 5 0 0 0 - - - 0;
#X obj 691 536 select 0 1 2 3 4 5 6 7;
#X obj 654 410 % 8;
#X obj 659 892 *~ 1.5;
#X obj 776 587 bng 15 250 50 0 empty empty empty 17 7 0 10 #fcfcfc
#000000 #000000;
#X floatatom 711 633 5 0 0 0 - - - 0;
#X obj 713 586 bng 15 250 50 0 empty empty empty 17 7 0 10 #fcfcfc
#000000 #000000;
#X obj 296 813 osc~;
#X obj 654 859 phasor~;
#X obj 806 857 phasor~;
#X obj 873 858 phasor~;
#X obj 936 858 phasor~;
#X msg 134 469 0;
#X msg 36 331 60;
#X msg 47 307 58;
#X msg 67 327 57;
#X obj 20 263 loadbang;
#X msg 78 306 63;
#X msg 96 328 62;
#X msg 111 305 56;
#X msg 126 324 55;
#X msg 141 301 59;
#X msg 1009 135 0 \, 1 200;
#X obj 1009 159 line~;
#X obj 1009 183 sqrt~;
#X obj 1009 207 *~ 20;
#X obj 1009 231 -~ 0.25;
#X obj 1009 255 cos~;
#X obj 1011 290 output~;
#X obj 1149 139 t b b;
#X obj 1149 187 line~;
#X obj 1149 211 pow~ 4;
#X obj 1149 235 *~;
#X obj 1211 210 osc~ 200;
#X text 1007 60 Bass drum;
#X text 938 130 ramp gen;
#X text 915 187 pitch bend;
#X text 925 234 sin wave;
#X obj 1257 130 line~;
#X obj 1257 154 pow~ 4;
#X obj 1319 153 noise~;
#X obj 1257 178 *~;
#X obj 1150 263 +~;
#X obj 1159 322 output~;
#X text 1155 64 Snare;
#X msg 1147 164 1 \, 0 100;
#X msg 1255 101 1 \, 0 200;
#X text 1275 68 Snares;
#X text 1269 391 Hihat;
#X msg 1206 428 1 \, 0 100;
#X obj 1206 452 line~;
#X obj 1206 476 pow~ 4;
#X obj 1206 500 *~;
#X obj 1279 430 noise~;
#X obj 1279 454 hip~ 8000;
#X obj 1279 478 hip~ 8000;
#X msg 1120 602 55;
#X msg 738 608 60;
#X msg 858 606 57;
#X msg 990 600 62;
#X obj 1049 505 loadbang;
#X obj 415 710 Additive synth based on sine bass;
#X obj 926 712 Super Saw imitation;
#X connect 0 0 6 0;
#X connect 1 0 5 0;
#X connect 2 0 57 0;
#X connect 3 0 1 0;
#X connect 4 0 3 0;
#X connect 5 0 6 0;
#X connect 6 0 8 0;
#X connect 6 0 2 0;
#X connect 8 0 9 0;
#X connect 9 0 10 0;
#X connect 9 0 11 0;
#X connect 10 0 9 1;
#X connect 11 0 52 0;
#X connect 12 0 13 0;
#X connect 13 0 51 0;
#X connect 18 0 22 0;
#X connect 19 0 23 0;
#X connect 20 0 24 0;
#X connect 21 0 25 0;
#X connect 22 0 28 0;
#X connect 23 0 28 0;
#X connect 24 0 28 0;
#X connect 25 0 28 0;
#X connect 26 0 27 0;
#X connect 27 0 31 0;
#X connect 27 0 33 0;
#X connect 27 0 35 0;
#X connect 27 0 37 0;
#X connect 27 0 99 0;
#X connect 28 1 26 0;
#X connect 29 0 56 0;
#X connect 31 0 32 0;
#X connect 32 0 42 0;
#X connect 33 0 34 0;
#X connect 34 0 39 0;
#X connect 35 0 36 0;
#X connect 36 0 40 0;
#X connect 37 0 38 0;
#X connect 38 0 41 0;
#X connect 39 0 29 0;
#X connect 40 0 29 0;
#X connect 41 0 29 0;
#X connect 42 0 53 0;
#X connect 43 0 47 0;
#X connect 44 0 48 0;
#X connect 45 0 49 0;
#X connect 46 0 50 0;
#X connect 47 0 28 0;
#X connect 48 0 28 0;
#X connect 49 0 28 0;
#X connect 50 0 28 0;
#X connect 51 1 18 0;
#X connect 51 1 114 0;
#X connect 51 2 19 0;
#X connect 51 2 121 0;
#X connect 51 2 141 0;
#X connect 51 3 20 0;
#X connect 51 3 114 0;
#X connect 51 4 21 0;
#X connect 51 4 141 0;
#X connect 51 5 43 0;
#X connect 51 5 114 0;
#X connect 51 6 44 0;
#X connect 51 6 121 0;
#X connect 51 6 141 0;
#X connect 51 7 45 0;
#X connect 51 8 46 0;
#X connect 51 8 114 0;
#X connect 51 8 141 0;
#X connect 52 0 12 0;
#X connect 53 0 56 0;
#X connect 54 0 56 1;
#X connect 55 0 54 0;
#X connect 56 0 30 0;
#X connect 57 0 58 0;
#X connect 57 0 59 0;
#X connect 58 0 57 1;
#X connect 59 0 94 0;
#X connect 60 0 61 0;
#X connect 61 0 93 0;
#X connect 66 0 69 0;
#X connect 67 0 70 0;
#X connect 68 0 73 0;
#X connect 69 0 73 0;
#X connect 70 0 73 0;
#X connect 71 0 72 0;
#X connect 72 0 74 0;
#X connect 72 0 77 0;
#X connect 72 0 79 0;
#X connect 72 0 81 0;
#X connect 72 0 83 0;
#X connect 73 1 71 0;
#X connect 74 0 75 0;
#X connect 75 0 76 1;
#X connect 77 0 78 0;
#X connect 78 0 100 0;
#X connect 79 0 80 0;
#X connect 80 0 101 0;
#X connect 81 0 82 0;
#X connect 82 0 102 0;
#X connect 83 0 84 0;
#X connect 84 0 103 0;
#X connect 85 0 89 0;
#X connect 86 0 90 0;
#X connect 87 0 91 0;
#X connect 88 0 92 0;
#X connect 89 0 73 0;
#X connect 90 0 73 0;
#X connect 91 0 73 0;
#X connect 92 0 73 0;
#X connect 93 1 98 0;
#X connect 93 2 96 0;
#X connect 93 3 66 0;
#X connect 93 4 67 0;
#X connect 93 5 85 0;
#X connect 93 6 86 0;
#X connect 93 7 87 0;
#X connect 93 8 88 0;
#X connect 94 0 60 0;
#X connect 95 0 76 1;
#X connect 96 0 68 0;
#X connect 97 0 73 0;
#X connect 98 0 97 0;
#X connect 99 0 29 0;
#X connect 100 0 95 0;
#X connect 101 0 75 0;
#X connect 102 0 75 0;
#X connect 103 0 75 0;
#X connect 104 0 13 0;
#X connect 105 0 22 0;
#X connect 106 0 23 0;
#X connect 107 0 24 0;
#X connect 108 0 105 0;
#X connect 108 0 106 0;
#X connect 108 0 107 0;
#X connect 108 0 109 0;
#X connect 108 0 110 0;
#X connect 108 0 111 0;
#X connect 108 0 112 0;
#X connect 108 0 113 0;
#X connect 109 0 25 0;
#X connect 110 0 47 0;
#X connect 111 0 48 0;
#X connect 112 0 49 0;
#X connect 113 0 50 0;
#X connect 114 0 115 0;
#X connect 115 0 116 0;
#X connect 116 0 117 0;
#X connect 117 0 118 0;
#X connect 118 0 119 0;
#X connect 119 0 120 0;
#X connect 119 0 120 1;
#X connect 121 0 137 0;
#X connect 121 1 138 0;
#X connect 122 0 123 0;
#X connect 123 0 124 0;
#X connect 124 0 134 0;
#X connect 125 0 124 1;
#X connect 130 0 131 0;
#X connect 131 0 133 0;
#X connect 132 0 133 1;
#X connect 133 0 134 1;
#X connect 134 0 135 0;
#X connect 134 0 135 1;
#X connect 137 0 122 0;
#X connect 138 0 130 0;
#X connect 141 0 142 0;
#X connect 142 0 143 0;
#X connect 143 0 144 0;
#X connect 144 0 135 0;
#X connect 144 0 135 1;
#X connect 145 0 146 0;
#X connect 146 0 147 0;
#X connect 147 0 144 1;
#X connect 148 0 91 0;
#X connect 149 0 97 0;
#X connect 150 0 69 0;
#X connect 151 0 89 0;
#X connect 152 0 151 0;
#X connect 152 0 150 0;
#X connect 152 0 149 0;
#X connect 152 0 148 0;
