#N canvas 641 69 786 756 12;
#X text 671 8 hello world!;
#X obj 683 223 print;
#X msg 683 173 hello world!;
#X obj 684 77 bng 15 250 50 0 empty empty empty 17 7 0 10 #fcfcfc #000000
#000000;
#X msg 525 110 stop;
#X obj 677 135 metro 3000;
#X msg 572 54 1;
#X obj 743 68 tgl 15 0 empty empty empty 17 7 0 10 #fcfcfc #000000
#000000 0 1;
#X floatatom 796 58 5 0 0 0 - - - 0;
#X obj 858 43 vsl 15 128 0 10000 0 0 empty empty empty 0 -9 0 10 #9c00ff
#000000 #000000 0 1;
#X connect 2 0 1 0;
#X connect 3 0 5 0;
#X connect 4 0 5 0;
#X connect 5 0 2 0;
#X connect 6 0 5 0;
#X connect 7 0 5 0;
#X connect 8 0 5 1;
#X connect 9 0 8 0;
