#N canvas 0 25 1440 900 12;
#X text 668 26 modulo;
#X obj 653 139 tgl 15 0 empty empty empty 17 7 0 10 #fcfcfc #000000
#000000 0 1;
#X obj 652 218 metro 1000;
#X floatatom 721 159 5 0 0 0 - - - 0;
#X obj 652 280 bng 15 250 50 0 empty empty empty 17 7 0 10 #fcfcfc
#000000 #000000;
#X msg 720 121 100;
#X obj 719 81 loadbang;
#X obj 651 319 int 1;
#X obj 714 317 + 1;
#X floatatom 650 365 5 0 0 0 - - - 0;
#X obj 650 407 % 4;
#X obj 649 451 + 1;
#X floatatom 649 494 5 0 0 0 - - - 0;
#X text 774 321 sequence adds 1;
#X text 731 370 module mathematical function;
#X text 730 409 divide count by 4 and spit out remainder;
#X text 733 448 add 1 to remainder;
#X connect 1 0 2 0;
#X connect 2 0 4 0;
#X connect 3 0 2 1;
#X connect 4 0 7 0;
#X connect 5 0 3 0;
#X connect 6 0 5 0;
#X connect 6 0 1 0;
#X connect 7 0 8 0;
#X connect 7 0 9 0;
#X connect 8 0 7 1;
#X connect 9 0 10 0;
#X connect 10 0 11 0;
#X connect 11 0 12 0;
