#N canvas 0 25 1440 900 12;
#X obj 644 131 bng 15 250 50 0 empty empty empty 17 7 0 10 #fcfcfc
#000000 #000000;
#X obj 605 277 line;
#X obj 767 268 bng 15 250 50 0 empty empty empty 17 7 0 10 #fcfcfc
#000000 #000000;
#X floatatom 589 351 5 0 0 0 - - - 0;
#X obj 591 461 osc~;
#X obj 588 530 *~ 0.5;
#X obj 580 600 output~;
#X text 327 209 go to 1000 in 3000 milliseconds;
#X text 832 355 go to 0 in 3000 milliseconds;
#X obj 746 207 delay 50;
#X obj 633 77 metro 100;
#X obj 636 41 tgl 15 0 empty empty empty 17 7 0 10 #fcfcfc #000000
#000000 0 1;
#X msg 576 198 1000 50;
#X msg 755 351 0 50;
#X connect 0 0 12 0;
#X connect 0 0 9 0;
#X connect 1 0 3 0;
#X connect 2 0 13 0;
#X connect 3 0 4 0;
#X connect 4 0 5 0;
#X connect 5 0 6 0;
#X connect 5 0 6 1;
#X connect 9 0 2 0;
#X connect 10 0 0 0;
#X connect 11 0 10 0;
#X connect 12 0 1 0;
#X connect 13 0 1 0;
