#N canvas 0 0 1440 875 12;
#X text 676 40 toy piano;
#X obj 739 603 osc~;
#X obj 740 670 *~ 0.5;
#X obj 743 731 dac~;
#X obj 648 616 vsl 15 128 0 1 0 0 empty empty empty 0 -9 0 10 #feffc6
#000000 #000000 0 1;
#X msg 489 503 0;
#X msg 623 505 60;
#X msg 639 479 61;
#X msg 661 504 62;
#X msg 676 479 63;
#X msg 701 505 64;
#X msg 739 505 65;
#X msg 756 478 66;
#X msg 776 504 67;
#X msg 793 478 68;
#X msg 813 502 69;
#X msg 834 477 70;
#X msg 850 502 71;
#X msg 886 502 72;
#X obj 740 555 mtof;
#X floatatom 805 582 5 0 0 0 - - - 0;
#X msg 911 477 73;
#X msg 928 502 74;
#X msg 953 477 75;
#X msg 965 503 76;
#X msg 1002 503 77;
#X msg 1020 476 78;
#X msg 1040 502 79;
#X msg 1057 476 80;
#X msg 1077 500 81;
#X msg 1098 475 82;
#X msg 1114 500 83;
#X connect 1 0 2 0;
#X connect 2 0 3 0;
#X connect 2 0 3 1;
#X connect 4 0 2 1;
#X connect 5 0 19 0;
#X connect 6 0 19 0;
#X connect 7 0 19 0;
#X connect 8 0 19 0;
#X connect 9 0 19 0;
#X connect 10 0 19 0;
#X connect 11 0 19 0;
#X connect 12 0 19 0;
#X connect 13 0 19 0;
#X connect 14 0 19 0;
#X connect 15 0 19 0;
#X connect 16 0 19 0;
#X connect 17 0 19 0;
#X connect 18 0 19 0;
#X connect 19 0 20 0;
#X connect 19 0 1 0;
#X connect 21 0 19 0;
#X connect 22 0 19 0;
#X connect 23 0 19 0;
#X connect 24 0 19 0;
#X connect 25 0 19 0;
#X connect 26 0 19 0;
#X connect 27 0 19 0;
#X connect 28 0 19 0;
#X connect 29 0 19 0;
#X connect 30 0 19 0;
#X connect 31 0 19 0;
